<svg width="284" height="228" viewBox="0 0 284 228" fill="none" xmlns="http://www.w3.org/2000/svg">
<g filter="url(#filter0_d_68_16)">
<mask id="path-1-outside-1_68_16" maskUnits="userSpaceOnUse" x="4" y="0" width="276" height="220" fill="black">
<rect fill="white" x="4" width="276" height="220"/>
<path d="M250 10C261.046 10 270 18.9543 270 30V156.423C270 167.469 261.046 176.423 250 176.423H108.241L60.04 209.332C58.0488 210.692 55.3486 209.266 55.3486 206.854V176.423H34C22.9543 176.423 14 167.469 14 156.423V30C14 18.9543 22.9543 10 34 10H250Z"/>
</mask>
<path d="M250 10C261.046 10 270 18.9543 270 30V156.423C270 167.469 261.046 176.423 250 176.423H108.241L60.04 209.332C58.0488 210.692 55.3486 209.266 55.3486 206.854V176.423H34C22.9543 176.423 14 167.469 14 156.423V30C14 18.9543 22.9543 10 34 10H250Z" fill="white"/>
<path d="M108.241 176.423V166.423H105.153L102.603 168.164L108.241 176.423ZM60.04 209.332L54.4014 201.073L54.4014 201.073L60.04 209.332ZM55.3486 176.423H65.3486V166.423H55.3486V176.423ZM34 176.423L34 186.423H34V176.423ZM14 30L4 30V30H14ZM34 10L34 0L34 0L34 10ZM250 10V20C255.523 20 260 24.4772 260 30H270H280C280 13.4315 266.569 0 250 0V10ZM270 30H260V156.423H270H280V30H270ZM270 156.423H260C260 161.946 255.523 166.423 250 166.423V176.423V186.423C266.569 186.423 280 172.991 280 156.423H270ZM250 176.423V166.423H108.241V176.423V186.423H250V176.423ZM108.241 176.423L102.603 168.164L54.4014 201.073L60.04 209.332L65.6786 217.591L113.88 184.682L108.241 176.423ZM60.04 209.332L54.4014 201.073C59.0479 197.901 65.3486 201.229 65.3486 206.854H55.3486H45.3486C45.3486 217.303 57.0497 223.482 65.6787 217.591L60.04 209.332ZM55.3486 206.854H65.3486V176.423H55.3486H45.3486V206.854H55.3486ZM55.3486 176.423V166.423H34V176.423V186.423H55.3486V176.423ZM34 176.423L34 166.423C28.4772 166.423 24 161.946 24 156.423H14H4C4 172.991 17.4315 186.423 34 186.423L34 176.423ZM14 156.423H24V30H14H4V156.423H14ZM14 30L24 30C24 24.4772 28.4772 20 34 20L34 10L34 0C17.4315 3.8655e-07 4.00001 13.4315 4 30L14 30ZM34 10V20H250V10V0H34V10Z" fill="black" mask="url(#path-1-outside-1_68_16)"/>
</g>
<path d="M238.834 96.7076C238.834 100.401 238.149 103.677 236.779 106.536C235.409 109.395 233.533 111.837 231.15 113.862C228.827 115.828 226.057 117.347 222.841 118.419C219.684 119.432 216.288 119.938 212.655 119.938C209.2 119.938 205.894 119.432 202.737 118.419C199.58 117.347 196.781 115.828 194.339 113.862C191.956 111.837 190.02 109.395 188.531 106.536C187.102 103.677 186.387 100.401 186.387 96.7076C186.387 93.0146 187.102 89.7385 188.531 86.8793C190.02 84.0202 191.956 81.6078 194.339 79.6422C196.781 77.6765 199.58 76.1874 202.737 75.1748C205.894 74.1622 209.2 73.6559 212.655 73.6559C216.05 73.6559 219.326 74.1622 222.483 75.1748C225.64 76.1874 228.41 77.6765 230.793 79.6422C233.235 81.6078 235.171 84.0202 236.6 86.8793C238.089 89.7385 238.834 93.0146 238.834 96.7076ZM212.655 81.6078C210.272 81.6078 208.039 81.9354 205.954 82.5907C203.929 83.1863 202.142 84.1393 200.593 85.4498C199.044 86.7006 197.823 88.2791 196.93 90.1852C196.036 92.0317 195.59 94.2059 195.59 96.7076C195.59 99.2093 196.036 101.413 196.93 103.319C197.823 105.225 199.015 106.834 200.504 108.144C202.052 109.395 203.869 110.348 205.954 111.003C208.039 111.658 210.272 111.986 212.655 111.986C215.038 111.986 217.271 111.658 219.356 111.003C221.5 110.348 223.347 109.395 224.896 108.144C226.444 106.834 227.665 105.225 228.559 103.319C229.452 101.413 229.899 99.2093 229.899 96.7076C229.899 94.2059 229.452 92.0317 228.559 90.1852C227.665 88.2791 226.444 86.7006 224.896 85.4498C223.347 84.1393 221.5 83.1863 219.356 82.5907C217.271 81.9354 215.038 81.6078 212.655 81.6078Z" fill="black"/>
<path d="M161.93 107.561C161.93 109.884 161.394 111.999 160.322 113.905C159.309 115.811 157.909 117.419 156.122 118.73C154.335 120.04 152.221 121.053 149.779 121.767C147.396 122.482 144.835 122.84 142.095 122.84C139.295 122.84 136.674 122.482 134.232 121.767C131.85 121.053 129.765 120.04 127.978 118.73C126.191 117.419 124.791 115.811 123.778 113.905C122.766 111.999 122.26 109.884 122.26 107.561C122.26 105.179 122.766 103.034 123.778 101.128C124.791 99.222 126.191 97.6138 127.978 96.3034C129.765 94.9929 131.85 94.0101 134.232 93.3549C136.674 92.6401 139.295 92.2827 142.095 92.2827C144.835 92.2827 147.396 92.6401 149.779 93.3549C152.221 94.0101 154.335 94.9929 156.122 96.3034C157.909 97.6138 159.309 99.222 160.322 101.128C161.394 103.034 161.93 105.179 161.93 107.561ZM114.129 90.3171V82.3651H169.793V90.3171H114.129ZM152.995 107.561C152.995 105.238 151.983 103.421 149.957 102.111C147.932 100.741 145.311 100.056 142.095 100.056C138.878 100.056 136.257 100.741 134.232 102.111C132.207 103.421 131.194 105.238 131.194 107.561C131.194 109.825 132.207 111.641 134.232 113.011C136.257 114.322 138.878 114.977 142.095 114.977C145.311 114.977 147.932 114.322 149.957 113.011C151.983 111.641 152.995 109.825 152.995 107.561ZM128.157 78.9699V71.0179H155.854V78.9699H128.157Z" fill="black"/>
<path d="M97.5292 96.7076C97.5292 100.401 96.8442 103.677 95.4742 106.536C94.1042 109.395 92.2279 111.837 89.8452 113.862C87.5222 115.828 84.7524 117.347 81.5359 118.419C78.379 119.432 74.9837 119.938 71.3503 119.938C67.8955 119.938 64.5896 119.432 61.4327 118.419C58.2757 117.347 55.4762 115.828 53.034 113.862C50.6514 111.837 48.7155 109.395 47.2264 106.536C45.7968 103.677 45.082 100.401 45.082 96.7076C45.082 93.0146 45.7968 89.7385 47.2264 86.8793C48.7155 84.0202 50.6514 81.6078 53.034 79.6422C55.4762 77.6765 58.2757 76.1874 61.4327 75.1748C64.5896 74.1622 67.8955 73.6559 71.3503 73.6559C74.7455 73.6559 78.0216 74.1622 81.1785 75.1748C84.3355 76.1874 87.1052 77.6765 89.4879 79.6422C91.93 81.6078 93.8659 84.0202 95.2955 86.8793C96.7846 89.7385 97.5292 93.0146 97.5292 96.7076ZM71.3503 81.6078C68.9677 81.6078 66.734 81.9354 64.6492 82.5907C62.624 83.1863 60.837 84.1393 59.2883 85.4498C57.7396 86.7006 56.5185 88.2791 55.6251 90.1852C54.7316 92.0317 54.2848 94.2059 54.2848 96.7076C54.2848 99.2093 54.7316 101.413 55.6251 103.319C56.5185 105.225 57.7098 106.834 59.199 108.144C60.7477 109.395 62.5644 110.348 64.6492 111.003C66.734 111.658 68.9677 111.986 71.3503 111.986C73.7329 111.986 75.9666 111.658 78.0513 111.003C80.1957 110.348 82.0422 109.395 83.5909 108.144C85.1396 106.834 86.3607 105.225 87.2542 103.319C88.1476 101.413 88.5944 99.2093 88.5944 96.7076C88.5944 94.2059 88.1476 92.0317 87.2542 90.1852C86.3607 88.2791 85.1396 86.7006 83.5909 85.4498C82.0422 84.1393 80.1957 83.1863 78.0513 82.5907C75.9666 81.9354 73.7329 81.6078 71.3503 81.6078Z" fill="black"/>
<defs>
<filter id="filter0_d_68_16" x="0" y="0" width="284" height="227.877" filterUnits="userSpaceOnUse" color-interpolation-filters="sRGB">
<feFlood flood-opacity="0" result="BackgroundImageFix"/>
<feColorMatrix in="SourceAlpha" type="matrix" values="0 0 0 0 0 0 0 0 0 0 0 0 0 0 0 0 0 0 127 0" result="hardAlpha"/>
<feOffset dy="4"/>
<feGaussianBlur stdDeviation="2"/>
<feComposite in2="hardAlpha" operator="out"/>
<feColorMatrix type="matrix" values="0 0 0 0 0 0 0 0 0 0 0 0 0 0 0 0 0 0 0.25 0"/>
<feBlend mode="normal" in2="BackgroundImageFix" result="effect1_dropShadow_68_16"/>
<feBlend mode="normal" in="SourceGraphic" in2="effect1_dropShadow_68_16" result="shape"/>
</filter>
</defs>
</svg>
